<svg width="586" height="86" viewBox="0 0 586 86" fill="none" xmlns="http://www.w3.org/2000/svg">
<path d="M42.3277 2.23592C43.4412 0.0541705 46.5586 0.0541718 47.672 2.23592L59.2947 25.0105C59.7306 25.8647 60.5486 26.459 61.4956 26.6096L86.7472 30.6257C89.1662 31.0104 90.1295 33.9753 88.3986 35.7084L70.3303 53.7999C69.6526 54.4785 69.3402 55.44 69.4896 56.3873L73.4733 81.644C73.8549 84.0635 71.3328 85.8959 69.1496 84.7853L46.3601 73.1918C45.5054 72.757 44.4943 72.757 43.6396 73.1918L20.8501 84.7853C18.6669 85.8959 16.1449 84.0635 16.5265 81.644L20.5102 56.3873C20.6596 55.44 20.3471 54.4785 19.6695 53.7999L1.60112 35.7084C-0.129782 33.9753 0.833565 31.0104 3.2526 30.6257L28.5041 26.6096C29.4512 26.459 30.2692 25.8647 30.7051 25.0105L42.3277 2.23592Z" fill="url(#paint0_linear_184_30)"/>
<path d="M290.328 2.23592C291.441 0.0541705 294.559 0.0541718 295.672 2.23592L307.295 25.0105C307.731 25.8647 308.549 26.459 309.496 26.6096L334.747 30.6257C337.166 31.0104 338.13 33.9753 336.399 35.7084L318.33 53.7999C317.653 54.4785 317.34 55.44 317.49 56.3873L321.473 81.644C321.855 84.0635 319.333 85.8959 317.15 84.7853L294.36 73.1918C293.505 72.757 292.494 72.757 291.64 73.1918L268.85 84.7853C266.667 85.8959 264.145 84.0635 264.526 81.644L268.51 56.3873C268.66 55.44 268.347 54.4785 267.669 53.7999L249.601 35.7084C247.87 33.9753 248.834 31.0104 251.253 30.6257L276.504 26.6096C277.451 26.459 278.269 25.8647 278.705 25.0105L290.328 2.23592Z" fill="url(#paint1_linear_184_30)"/>
<path d="M166.328 2.23592C167.441 0.0541705 170.559 0.0541718 171.672 2.23592L183.295 25.0105C183.731 25.8647 184.549 26.459 185.496 26.6096L210.747 30.6257C213.166 31.0104 214.13 33.9753 212.399 35.7084L194.33 53.7999C193.653 54.4785 193.34 55.44 193.49 56.3873L197.473 81.644C197.855 84.0635 195.333 85.8959 193.15 84.7853L170.36 73.1918C169.505 72.757 168.494 72.757 167.64 73.1918L144.85 84.7853C142.667 85.8959 140.145 84.0635 140.526 81.644L144.51 56.3873C144.66 55.44 144.347 54.4785 143.669 53.7999L125.601 35.7084C123.87 33.9753 124.834 31.0104 127.253 30.6257L152.504 26.6096C153.451 26.459 154.269 25.8647 154.705 25.0105L166.328 2.23592Z" fill="url(#paint2_linear_184_30)"/>
<path d="M414.328 2.23592C415.441 0.0541705 418.559 0.0541718 419.672 2.23592L431.295 25.0105C431.731 25.8647 432.549 26.459 433.496 26.6096L458.747 30.6257C461.166 31.0104 462.13 33.9753 460.399 35.7084L442.33 53.7999C441.653 54.4785 441.34 55.44 441.49 56.3873L445.473 81.644C445.855 84.0635 443.333 85.8959 441.15 84.7853L418.36 73.1918C417.505 72.757 416.494 72.757 415.64 73.1918L392.85 84.7853C390.667 85.8959 388.145 84.0635 388.526 81.644L392.51 56.3873C392.66 55.44 392.347 54.4785 391.669 53.7999L373.601 35.7084C371.87 33.9753 372.834 31.0104 375.253 30.6257L400.504 26.6096C401.451 26.459 402.269 25.8647 402.705 25.0105L414.328 2.23592Z" fill="url(#paint3_linear_184_30)"/>
<path d="M538.328 2.23592C539.441 0.0541705 542.559 0.0541718 543.672 2.23592L555.295 25.0105C555.731 25.8647 556.549 26.459 557.496 26.6096L582.747 30.6257C585.166 31.0104 586.13 33.9753 584.399 35.7084L566.33 53.7999C565.653 54.4785 565.34 55.44 565.49 56.3873L569.473 81.644C569.855 84.0635 567.333 85.8959 565.15 84.7853L542.36 73.1918C541.505 72.757 540.494 72.757 539.64 73.1918L516.85 84.7853C514.667 85.8959 512.145 84.0635 512.526 81.644L516.51 56.3873C516.66 55.44 516.347 54.4785 515.669 53.7999L497.601 35.7084C495.87 33.9753 496.834 31.0104 499.253 30.6257L524.504 26.6096C525.451 26.459 526.269 25.8647 526.705 25.0105L538.328 2.23592Z" fill="url(#paint4_linear_184_30)"/>
<defs>
<linearGradient id="paint0_linear_184_30" x1="0.999999" y1="43" x2="585" y2="43" gradientUnits="userSpaceOnUse">
<stop stop-color="#0238FF"/>
<stop offset="1" stop-color="#984DF6"/>
</linearGradient>
<linearGradient id="paint1_linear_184_30" x1="0.999999" y1="43" x2="585" y2="43" gradientUnits="userSpaceOnUse">
<stop stop-color="#0238FF"/>
<stop offset="1" stop-color="#984DF6"/>
</linearGradient>
<linearGradient id="paint2_linear_184_30" x1="0.999999" y1="43" x2="585" y2="43" gradientUnits="userSpaceOnUse">
<stop stop-color="#0238FF"/>
<stop offset="1" stop-color="#984DF6"/>
</linearGradient>
<linearGradient id="paint3_linear_184_30" x1="0.999999" y1="43" x2="585" y2="43" gradientUnits="userSpaceOnUse">
<stop stop-color="#0238FF"/>
<stop offset="1" stop-color="#984DF6"/>
</linearGradient>
<linearGradient id="paint4_linear_184_30" x1="0.999999" y1="43" x2="585" y2="43" gradientUnits="userSpaceOnUse">
<stop stop-color="#0238FF"/>
<stop offset="1" stop-color="#984DF6"/>
</linearGradient>
</defs>
</svg>
